<svg width="32" height="32" viewBox="0 0 32 32" fill="none" xmlns="http://www.w3.org/2000/svg">
<g opacity="0.5">
<path fill-rule="evenodd" clip-rule="evenodd" d="M29.9999 15.9998C29.9999 15.7345 29.8945 15.4802 29.707 15.2927C29.5195 15.1051 29.2651 14.9998 28.9999 14.9998H5.4139L11.7079 8.70777C11.8009 8.61479 11.8746 8.50441 11.9249 8.38293C11.9753 8.26146 12.0012 8.13126 12.0012 7.99977C12.0012 7.86828 11.9753 7.73808 11.9249 7.6166C11.8746 7.49512 11.8009 7.38474 11.7079 7.29177C11.6149 7.19879 11.5045 7.12504 11.3831 7.07472C11.2616 7.0244 11.1314 6.9985 10.9999 6.9985C10.8684 6.9985 10.7382 7.0244 10.6167 7.07472C10.4952 7.12504 10.3849 7.19879 10.2919 7.29177L2.2919 15.2918C2.19877 15.3847 2.12488 15.495 2.07447 15.6165C2.02406 15.738 1.99811 15.8682 1.99811 15.9998C1.99811 16.1313 2.02406 16.2615 2.07447 16.383C2.12488 16.5045 2.19877 16.6149 2.2919 16.7078L10.2919 24.7078C10.3849 24.8007 10.4952 24.8745 10.6167 24.9248C10.7382 24.9751 10.8684 25.001 10.9999 25.001C11.1314 25.001 11.2616 24.9751 11.3831 24.9248C11.5045 24.8745 11.6149 24.8007 11.7079 24.7078C11.8009 24.6148 11.8746 24.5044 11.9249 24.3829C11.9753 24.2615 12.0012 24.1313 12.0012 23.9998C12.0012 23.8683 11.9753 23.7381 11.9249 23.6166C11.8746 23.4951 11.8009 23.3847 11.7079 23.2918L5.4139 16.9998H28.9999C29.2651 16.9998 29.5195 16.8944 29.707 16.7069C29.8945 16.5193 29.9999 16.265 29.9999 15.9998Z" fill="#FE5B3E"/>
</g>
</svg>
