<svg width="48" height="48" viewBox="0 0 48 48" fill="none" xmlns="http://www.w3.org/2000/svg">
<path fill-rule="evenodd" clip-rule="evenodd" d="M3.00018 23.9998C3.00018 23.6019 3.15822 23.2204 3.43952 22.9391C3.72083 22.6578 4.10236 22.4998 4.50018 22.4998H39.8792L30.4382 13.0618C30.2987 12.9223 30.1881 12.7567 30.1126 12.5745C30.0371 12.3923 29.9983 12.197 29.9983 11.9998C29.9983 11.8025 30.0371 11.6072 30.1126 11.425C30.1881 11.2428 30.2987 11.0772 30.4382 10.9378C30.5777 10.7983 30.7432 10.6877 30.9254 10.6122C31.1077 10.5367 31.303 10.4979 31.5002 10.4979C31.6974 10.4979 31.8927 10.5367 32.0749 10.6122C32.2572 10.6877 32.4227 10.7983 32.5622 10.9378L44.5622 22.9378C44.7019 23.0771 44.8127 23.2426 44.8883 23.4249C44.9639 23.6071 45.0029 23.8025 45.0029 23.9998C45.0029 24.1971 44.9639 24.3924 44.8883 24.5747C44.8127 24.7569 44.7019 24.9224 44.5622 25.0618L32.5622 37.0618C32.4227 37.2012 32.2572 37.3118 32.0749 37.3873C31.8927 37.4628 31.6974 37.5016 31.5002 37.5016C31.303 37.5016 31.1077 37.4628 30.9254 37.3873C30.7432 37.3118 30.5777 37.2012 30.4382 37.0618C30.2987 36.9223 30.1881 36.7567 30.1126 36.5745C30.0371 36.3923 29.9983 36.197 29.9983 35.9998C29.9983 35.8025 30.0371 35.6072 30.1126 35.425C30.1881 35.2428 30.2987 35.0772 30.4382 34.9378L39.8792 25.4998H4.50018C4.10236 25.4998 3.72083 25.3417 3.43952 25.0604C3.15822 24.7791 3.00018 24.3976 3.00018 23.9998Z" fill="#FE5B3E"/>
</svg>
