<svg width="24" height="24" viewBox="0 0 24 24" fill="none" xmlns="http://www.w3.org/2000/svg">
<path fill-rule="evenodd" clip-rule="evenodd" d="M1.50003 11.9997C1.50003 11.8008 1.57905 11.61 1.7197 11.4694C1.86036 11.3287 2.05112 11.2497 2.25003 11.2497H19.9395L15.219 6.53073C15.1493 6.46099 15.094 6.37821 15.0562 6.2871C15.0185 6.19599 14.9991 6.09834 14.9991 5.99973C14.9991 5.90111 15.0185 5.80346 15.0562 5.71235C15.094 5.62124 15.1493 5.53846 15.219 5.46873C15.2888 5.39899 15.3715 5.34368 15.4627 5.30594C15.5538 5.2682 15.6514 5.24878 15.75 5.24878C15.8486 5.24878 15.9463 5.2682 16.0374 5.30594C16.1285 5.34368 16.2113 5.39899 16.281 5.46873L22.281 11.4687C22.3509 11.5384 22.4063 11.6212 22.4441 11.7123C22.4819 11.8034 22.5014 11.9011 22.5014 11.9997C22.5014 12.0984 22.4819 12.1961 22.4441 12.2872C22.4063 12.3783 22.3509 12.4611 22.281 12.5307L16.281 18.5307C16.2113 18.6005 16.1285 18.6558 16.0374 18.6935C15.9463 18.7312 15.8486 18.7507 15.75 18.7507C15.6514 18.7507 15.5538 18.7312 15.4627 18.6935C15.3715 18.6558 15.2888 18.6005 15.219 18.5307C15.1493 18.461 15.094 18.3782 15.0562 18.2871C15.0185 18.196 14.9991 18.0983 14.9991 17.9997C14.9991 17.9011 15.0185 17.8035 15.0562 17.7124C15.094 17.6212 15.1493 17.5385 15.219 17.4687L19.9395 12.7497H2.25003C2.05112 12.7497 1.86036 12.6707 1.7197 12.5301C1.57905 12.3894 1.50003 12.1986 1.50003 11.9997Z" fill="white"/>
</svg>
