<svg width="48" height="48" viewBox="0 0 48 48" fill="none" xmlns="http://www.w3.org/2000/svg">
<path fill-rule="evenodd" clip-rule="evenodd" d="M6.68739 29.9405C5.77086 26.0332 5.77087 21.9668 6.68739 18.0595C8.01099 12.4168 12.4168 8.01099 18.0595 6.6874C21.9668 5.77087 26.0332 5.77087 29.9405 6.6874C35.5832 8.01099 39.989 12.4168 41.3126 18.0595C42.2291 21.9668 42.2291 26.0332 41.3126 29.9405C39.989 35.5832 35.5832 39.989 29.9405 41.3126C26.0332 42.2291 21.9668 42.2291 18.0595 41.3126C12.4168 39.989 8.01098 35.5832 6.68739 29.9405ZM22.8977 18.4012C22.4491 17.9526 21.7217 17.9526 21.2731 18.4012L16.4867 23.1877C16.2713 23.4031 16.1502 23.6953 16.1502 23.9999C16.1502 24.3046 16.2713 24.5968 16.4867 24.8122L21.2731 29.5987C21.7217 30.0473 22.4491 30.0473 22.8977 29.5987C23.3463 29.15 23.3463 28.4227 22.8977 27.9741L20.0723 25.1487L30.701 25.1487C31.3354 25.1487 31.8497 24.6344 31.8497 23.9999C31.8497 23.3655 31.3354 22.8512 30.701 22.8512L20.0723 22.8512L22.8977 20.0258C23.3463 19.5772 23.3463 18.8498 22.8977 18.4012Z" fill="#FE5B3E"/>
</svg>
