<svg width="545" height="545" viewBox="0 0 545 545" fill="none" xmlns="http://www.w3.org/2000/svg">
<circle cx="272.24" cy="272.24" r="272.24" transform="matrix(-1 0 0 1 544.479 0)" fill="url(#paint0_linear_1_606)"/>
<mask id="mask0_1_606" style="mask-type:alpha" maskUnits="userSpaceOnUse" x="0" y="0" width="545" height="545">
<circle cx="272.24" cy="272.24" r="272.24" transform="matrix(-1 0 0 1 544.479 0)" fill="url(#paint1_linear_1_606)"/>
</mask>
<g mask="url(#mask0_1_606)">
<path d="M658.642 432.797C608.296 457.294 552.239 448.728 498.436 452.184C467.627 454.138 436.217 455.04 405.408 452.635C373.547 450.231 343.94 452.936 312.229 457.595C260.38 465.41 211.086 447.375 159.838 444.219C96.7169 440.462 32.995 445.872 -30.1258 444.67C-39.8946 444.52 -39.8946 426.936 -30.1258 426.635C32.995 425.583 96.7169 425.734 159.838 427.387C211.086 428.739 265.79 436.104 316.738 427.086C374.448 416.867 432.159 426.786 490.17 421.375C545.776 416.115 601.082 419.121 656.689 415.965C665.556 415.664 665.556 429.491 658.642 432.797Z" fill="white" fill-opacity="0.2"/>
<path d="M642.712 371.932C612.955 370.579 582.597 376.741 552.539 377.042C521.73 377.192 491.071 380.348 460.262 380.649C429.454 381.1 398.645 380.649 367.836 380.949C337.027 381.25 306.969 387.261 276.31 389.516C215.895 393.724 154.427 390.267 94.0115 390.267C79.5839 390.267 63.8038 387.863 49.5264 389.516C38.5554 390.868 27.2839 394.625 16.3129 396.579C-1.72162 399.585 -29.2242 412.359 -46.3571 399.585C-61.3858 388.313 -46.8079 359.458 -32.5306 371.481C-24.7156 378.094 -5.92969 369.527 3.08752 368.776C14.9603 367.724 26.5325 367.273 38.2549 365.169C63.954 360.811 91.4567 364.117 117.456 364.117C176.369 364.117 236.184 368.025 294.946 362.464C323.35 359.759 350.402 356.603 379.107 356.753C411.569 356.903 444.482 359.308 477.095 357.504C530.447 354.499 591.914 345.932 643.613 365.77C646.168 366.822 645.868 372.082 642.712 371.932Z" fill="white" fill-opacity="0.2"/>
<path d="M659.093 327.746C626.631 331.203 595.071 323.087 562.608 322.035C530.898 320.983 499.187 323.538 467.476 321.735C401.65 317.978 337.027 308.96 270.9 309.261C239.19 309.411 207.178 307.608 175.618 310.012C148.416 312.116 121.815 319.781 94.4626 321.134C68.1624 322.486 42.1625 326.995 16.0125 329.55C-12.6924 332.405 -41.5477 339.619 -70.2526 339.318C-89.79 339.018 -89.6397 302.047 -70.2526 303.4C-15.6982 307.157 39.758 290.024 94.4626 288.521C121.665 287.77 148.416 279.654 175.618 277.851C207.178 275.747 239.34 277.55 270.9 277.7C337.027 277.851 401.65 287.319 467.476 291.527C497.835 293.481 528.343 291.226 558.701 292.429C592.666 293.781 625.579 304.151 659.093 309.411C668.862 310.764 669.313 326.544 659.093 327.746Z" fill="white" fill-opacity="0.2"/>
<path d="M635.648 250.048C603.787 251.702 572.527 254.707 540.516 254.257C510.308 253.806 479.95 252.002 449.742 251.101C389.928 249.297 330.113 250.499 270.299 250.95C213.34 251.401 156.832 254.407 99.7226 254.407C68.4628 254.407 37.3531 254.407 6.09332 254.557C-7.88342 254.557 -22.0104 253.806 -35.9872 254.557C-50.7154 255.459 -64.8424 260.268 -79.5706 261.17C-96.1022 262.222 -96.2526 230.661 -79.5706 230.661C-51.016 230.361 -22.6116 226.153 6.09332 226.153C35.8503 226.153 65.7575 226.153 95.5145 226.303C153.976 226.303 211.837 223.598 270.299 224.199C328.611 224.8 387.072 224.5 445.384 227.205C508.956 230.21 572.227 238.326 635.648 241.933C640.157 242.083 640.157 249.748 635.648 250.048Z" fill="white" fill-opacity="0.2"/>
<path d="M637.902 189.482C605.29 191.737 572.677 188.13 540.065 188.28C506.551 188.43 473.037 189.031 439.523 189.182C372.344 189.332 305.165 181.968 237.987 184.373C175.016 186.627 112.046 190.083 49.2256 184.673C25.6305 182.569 3.68845 182.269 -19.9067 185.875C-41.8487 189.182 -64.542 194.141 -86.6343 193.54C-102.715 193.089 -102.715 163.032 -86.6343 163.934C-41.9989 166.488 2.03537 150.257 47.1217 155.968C77.3294 159.876 108.89 158.673 139.398 159.124C172.612 159.575 205.074 157.471 238.137 156.419C305.316 154.315 372.494 162.581 439.673 162.881C471.834 163.032 503.996 162.28 536.007 164.084C570.724 166.038 603.637 174.754 638.052 179.263C643.313 180.014 643.613 189.182 637.902 189.482Z" fill="white" fill-opacity="0.2"/>
<path d="M623.926 125.309C562.308 134.176 497.534 131.02 435.465 130.87C369.339 130.72 304.114 119.298 237.987 120.65C205.525 121.402 173.063 117.945 140.601 117.795C110.393 117.795 80.4857 123.055 50.4282 123.356C22.0239 123.656 -5.7793 129.818 -33.8831 132.223C-47.409 133.425 -59.5823 130.569 -72.9579 133.275C-84.9809 135.679 -97.7553 134.477 -109.929 134.327C-125.408 134.327 -125.408 105.622 -109.929 105.622C-97.1542 105.622 -85.582 105.622 -73.1082 103.217C-59.2817 100.512 -45.7559 105.021 -31.9294 103.067C-5.47876 99.46 20.6713 94.801 47.2722 94.1999C77.1794 93.5987 106.636 88.4888 136.543 88.6391C170.358 88.7894 204.172 91.9455 238.137 91.4946C303.062 90.7432 366.784 102.616 431.558 103.518C464.471 103.968 497.233 103.367 530.146 104.57C546.077 105.171 562.308 104.87 578.238 106.674C593.718 108.477 608.596 113.136 624.076 114.789C629.486 115.691 629.336 124.558 623.926 125.309Z" fill="white" fill-opacity="0.2"/>
</g>
<defs>
<linearGradient id="paint0_linear_1_606" x1="177.81" y1="328.165" x2="395.88" y2="70.3532" gradientUnits="userSpaceOnUse">
<stop stop-color="#FE5B3E"/>
<stop offset="1" stop-color="#FE7B49"/>
</linearGradient>
<linearGradient id="paint1_linear_1_606" x1="272.24" y1="0" x2="272.24" y2="544.479" gradientUnits="userSpaceOnUse">
<stop stop-color="#FE5B3E"/>
<stop offset="1" stop-color="#FE7B49"/>
</linearGradient>
</defs>
</svg>
