<svg width="21" height="14" viewBox="0 0 21 14" fill="none" xmlns="http://www.w3.org/2000/svg">
<path fill-rule="evenodd" clip-rule="evenodd" d="M-1.33514e-05 6.75095C-1.33514e-05 6.55203 0.0790043 6.36127 0.219656 6.22062C0.36031 6.07997 0.551075 6.00095 0.749987 6.00095H18.4395L13.719 1.28195C13.6493 1.21222 13.5939 1.12943 13.5562 1.03832C13.5185 0.947214 13.499 0.849563 13.499 0.750947C13.499 0.652332 13.5185 0.554681 13.5562 0.463572C13.5939 0.372463 13.6493 0.289679 13.719 0.219947C13.7887 0.150215 13.8715 0.0949012 13.9626 0.0571625C14.0537 0.0194239 14.1514 0 14.25 0C14.3486 0 14.4463 0.0194239 14.5374 0.0571625C14.6285 0.0949012 14.7113 0.150215 14.781 0.219947L20.781 6.21995C20.8508 6.28962 20.9062 6.37238 20.9441 6.4635C20.9819 6.55462 21.0013 6.6523 21.0013 6.75095C21.0013 6.8496 20.9819 6.94728 20.9441 7.0384C20.9062 7.12951 20.8508 7.21228 20.781 7.28195L14.781 13.2819C14.7113 13.3517 14.6285 13.407 14.5374 13.4447C14.4463 13.4825 14.3486 13.5019 14.25 13.5019C14.1514 13.5019 14.0537 13.4825 13.9626 13.4447C13.8715 13.407 13.7887 13.3517 13.719 13.2819C13.6493 13.2122 13.5939 13.1294 13.5562 13.0383C13.5185 12.9472 13.499 12.8496 13.499 12.7509C13.499 12.6523 13.5185 12.5547 13.5562 12.4636C13.5939 12.3725 13.6493 12.2897 13.719 12.2199L18.4395 7.50095H0.749987C0.551075 7.50095 0.36031 7.42193 0.219656 7.28128C0.0790043 7.14063 -1.33514e-05 6.94986 -1.33514e-05 6.75095Z" fill="white"/>
</svg>
